<?xml version="1.0" encoding="UTF-8"?> <!-- Generator: Adobe Illustrator 23.0.2, SVG Export Plug-In . SVG Version: 6.00 Build 0) --> <svg xmlns="http://www.w3.org/2000/svg" xmlns:xlink="http://www.w3.org/1999/xlink" id="Capa_1" x="0px" y="0px" viewBox="0 0 1000 400" style="enable-background:new 0 0 1000 400;" xml:space="preserve"> <style type="text/css"> .st0{fill:#0A4E9B;} </style> <g> <path class="st0" d="M934.57,262.33c-3.14,0-7.97-0.21-10.89-0.7c-6.23-0.93-7.69-4.11-8.42-9.66c-0.97-8.65-0.97-25.1-0.97-44.91 v-36.18c0-31.16,0-37,0.49-43.47c0.48-7.23,2.17-10.18,7.96-11.11c2.39-0.47,4.07-0.72,6.26-0.72c2.17,0,3.4-0.48,3.4-2.41 c0-1.22-1.69-1.71-4.34-1.71c-8.2,0-22.02,0.48-27.23,0.48c-6.1,0-20.57-0.48-28.54-0.48c-1.73,0-3,0.13-3.84,0.42 c-0.87-0.33-2.13-0.42-3.7-0.42c-10.34,0-18.31,0.48-20.69,0.48c-4.59,0-15.97-0.48-27.06-0.48c-3.14,0-5.32,0.24-5.29,1.95 c-0.03,1.15,0.72,2.17,3.33,2.17c2.91,0,8.02,0,11.14,1.22c5.06,1.89,7,5.51,7.26,18.09l2.17,91.25h-1.03 c-3.09-2.9-31.31-31.86-45.79-46.09c-30.92-30.2-62.82-62.8-65.4-65.47c-3.67-3.57-6.54-6.73-9.21-6.73 c-2.21,0-3.61,2.92-3.61,7.02l-1.99,121.65c-0.21,17.86-0.94,23.39-6.44,24.89c-1.71,0.43-3.71,0.66-5.67,0.8 c-1.42-0.11-2.92-0.28-4.64-0.55c-3.9-0.75-9.94-3.38-18.11-22.01c-13.5-31.11-49-115.11-54.12-126.46 c-2.14-4.6-3.12-6.54-6.25-6.54c-2.16,0-3.88,2.4-6.24,8.24l-52.75,122.62c-1.9-1.89-3.8-3.79-5.75-5.81l-35.68-36.73l-0.01,0 c-0.3-0.37-0.61-0.74-0.93-1.13c20.76-16.67,29.47-30.18,29.47-45.4c0-13.76-8.93-24.14-15-28.22c-11.36-7.51-26.74-8.72-40.3-8.72 c-6.48,0-25.82,0.48-33.05,0.48c-4.36,0-17.86-0.48-28.98-0.48c-3.17,0-4.82,0.48-4.84,1.95c0.03,1.45,1.46,2.17,3.62,2.17 c3.15,0,6.75,0.23,8.49,0.72c6.71,1.91,8.67,4.14,9.17,11.11c0.2,6.48,0.21,12.31,0.21,43.47v36.18c0,18.84-0.01,34.99-0.96,43.7 c-0.73,6.01-1.93,9.91-6.29,10.88c-1.63,0.42-3.69,0.59-6.15,0.65c-2.05-0.06-4.14-0.23-6.79-0.65 c-3.85-0.73-9.91-3.38-18.09-22.01c-13.55-31.11-49-115.11-54.07-126.46c-2.21-4.62-3.15-6.54-6.33-6.52 c-2.13-0.02-3.83,2.4-6.23,8.21l-54.25,126.19c-0.3-1.7-0.58-3.52-0.86-5.49L258.77,86.34c-0.7-5.07-2.16-7.47-4.34-7.47 c-2.19,0-3.34,1.96-5.31,5.77l-65.69,137.89l-65.9-136.19c-3.1-6.28-4.58-7.47-6.49-7.47c-1.94,0-3.39,2.17-4.11,6.25l-23.9,157.42 c-1.19,8.2-3.15,17.63-9.91,19.08c-3.63,0.7-5.29,0.7-7.19,0.7c-2.45,0-3.89,0.53-3.89,1.7c0,2.16,1.93,2.67,4.3,2.67 c7.76,0,19.37-0.75,23.94-0.75c4.33,0,15.19,0.75,25.34,0.75c3.63,0,5.83-0.51,5.83-2.67c0-1.18-1.73-1.7-3.65-1.7 c-2.4,0-5.83-0.21-10.14-1.21c-4.08-0.95-7.25-3.12-7.25-7.68c0-3.89,0.27-7.03,0.74-11.39l12.56-96.06h0.96 c8.43,18.12,22.92,48.55,25.11,53.62c2.89,6.72,21.97,43.71,27.75,54.76c3.87,7.27,6.27,12.07,8.44,12.07 c2.15,0,3.41-2.16,8.93-13.49l52.62-109.62h0.95l14.47,106.22c1,6.77,0.82,11.08-0.63,11.54c-1.7,0.73-2.67,1.47-2.67,2.68 c0,1.42,1.47,2.17,7.03,2.64c9.64,0.71,42.43,0.29,48.44,0.29c0.07,0,0.13-0.01,0.19-0.01c0.28,0,0.58,0.01,0.85,0.01 c0.84,0,1.49-0.11,2.03-0.3c1.86-0.36,3.2-1.09,3.2-2.36c0-1.45-1.7-1.7-3.85-1.7c-2.37,0-5.77-0.14-10.35-1.18 c-1.71-0.98-2.37-2.53-2.37-4.56c0-2.44,0.94-7.52,3.13-12.63l11.35-27.5c0.47-1.21,0.72-1.41,1.97-1.41h49.92 c0.97,0,1.7,0.22,2.16,1.41l16.44,41.31c0.97,2.4-0.51,4.35-1.95,4.56c-2.18,0.25-2.66,0.96-2.66,2.16c0,1.46,2.42,1.46,6.26,1.7 c17.9,0.51,33.34,0.51,40.82,0.51c1.46,0,2.63-0.02,3.67-0.06c0.27,0.02,0.51,0.06,0.81,0.06c8.49,0,21.98-0.75,26.08-0.75 c3.14,0,20.79,0.75,33.09,0.75c2.66,0,4.35-0.75,4.34-2.21c0.01-0.95-0.92-2.16-2.62-2.16c-2.69,0-7.28-0.21-10.4-0.7 c-6.53-0.97-7.53-4.87-8.22-10.88c-0.95-8.71-1.21-24.62-1.23-43.7v-2.9c0-1.2,0.77-1.68,1.72-1.68l19.08,0.47 c1.45,0,2.65,0.27,3.8,1.46c0.16,0.13,0.27,0.26,0.36,0.41l0.02-0.01l21.92,26.77c30.1,36.77,51.9,53.39,87.6,66.39 c33.57,12.27,64.63,11.02,81.05,9.51c1.92-0.25,3.47-0.53,3.97-1.9c0.39-1.04-0.29-2.46-1.36-2.83c-1.02-0.41-2.32-0.27-3.82-0.24 c-18.35,0.24-35.9-4.98-48.07-9.4c-13.29-4.87-36.15-15.57-66.87-43.4c0.49-1.8,1.12-3.73,1.98-5.72l11.35-27.54 c0.42-1.21,0.72-1.41,1.93-1.41h49.92c0.99,0,1.75,0.2,2.18,1.46l16.39,41.26c1.06,2.4-0.42,4.35-1.88,4.56 c-2.17,0.25-2.67,0.96-2.67,2.16c0,1.46,2.42,1.46,6.31,1.7c17.83,0.51,33.3,0.51,40.76,0.51c0.12,0,0.21,0,0.33,0 c0.03,0,0.05,0,0.08,0c10.88,0,20.95-0.75,22.94-0.75c3.87,0,13.71,0.75,27.48,0.75c2.91,0,4.83-0.51,4.79-2.21 c0-1.2-1.19-2.16-3.55-2.16c-3.41,0-7.47-0.21-11.1-1.46c-4.13-1.44-6.79-6.28-7.27-22.17l-2.39-83.81l0.72,0.03 c4.07,3.61,26.57,28.46,49.72,50.69c22.17,21.48,48.78,46.81,62.03,59.14c2.19,2.15,5.08,4.34,8.7,4.34c1.66,0,3.4-1.92,3.4-6.52 l2.41-129.39c0.2-11.6,1.92-15.23,7.74-16.9c2.65-0.75,4.29-0.72,6.48-0.72c0.95,0,1.66-0.18,2.24-0.44 c0.57,0.31,1.34,0.44,2.36,0.44c2.67,0,5.33,0.25,7.71,0.94c4.58,1.45,6.76,3.91,7.29,10.89c0.23,6.48,0.23,12.31,0.23,43.47v36.18 c0,19.82,0,36.26-0.97,44.64c-0.71,6.07-1.97,9.01-6.3,9.93c-1.89,0.49-4.35,0.7-7.46,0.7c-2.68,0-3.41,1.21-3.41,2.16 c0,1.46,1.46,2.21,4.14,2.21c8.42,0,22.9-0.75,27.74-0.75c5.78,0,20.28,0.75,34.28,0.75c2.42,0,4.12-0.75,4.12-2.21 C937.96,263.54,936.97,262.33,934.57,262.33z M356.62,203.69l-41.02-0.05c-0.73,0.05-1.25-0.43-0.73-1.46l20.49-51.89 c0.24-0.73,0.5-1.89,1.19-1.91c0.52,0,0.74,1.18,0.97,1.91l20.02,52.17C357.81,203.22,357.54,203.65,356.62,203.69z M500.86,188.93 c-3.6,2.68-6.5,3.41-14.96,3.41c-5.27-0.03-11.59-0.51-16.2-1.93c-1.39-0.72-1.92-1.48-1.9-3.62l-0.02-61.1 c0-1.67,0.53-2.42,1.92-2.88c2.19-0.52,7.27-0.74,12.6-0.74c12.55,0,32.35,7.52,32.35,36.47 C514.65,175.41,507.44,184.37,500.86,188.93z M627.83,203.69l-41.02-0.05c-0.73,0.05-1.26-0.43-0.73-1.46l20.48-51.89 c0.26-0.73,0.55-1.89,1.24-1.91c0.46,0.01,0.72,1.18,0.94,1.91l20.06,52.17C629.03,203.22,628.8,203.69,627.83,203.69z"></path> <g> <path class="st0" d="M925.97,319.59c-0.51,0-1.03-0.05-1.77-0.19c-0.84-0.14-2.19-0.79-4-4.86c-2.98-6.93-10.93-25.59-12.03-28.08 c-0.44-1.03-0.69-1.44-1.39-1.44c-0.47,0-0.85,0.53-1.39,1.78l-12.34,28.69c-0.93,2.29-1.76,3.72-3.88,4.05 c-0.42,0-0.99,0.04-1.39,0.05c-0.38,0-0.53,0.21-0.53,0.47c0,0.37,0.21,0.48,0.85,0.48c2.44,0,4.95-0.17,5.42-0.17 c1.51,0,3.74,0.17,5.3,0.17c0.47,0,0.72-0.11,0.71-0.48c0-0.27-0.08-0.47-0.63-0.47l-0.78-0.01c-1.42,0.01-1.86-0.47-1.86-1.25 c0-0.57,0.24-1.68,0.71-2.83l2.52-6.11c0.1-0.25,0.16-0.31,0.41-0.31h11.12c0.26,0,0.4,0.06,0.46,0.31l3.68,9.17 c0.23,0.55-0.13,0.99-0.46,1.04c-0.45,0.01-0.62,0.21-0.57,0.47c-0.05,0.31,0.51,0.31,1.39,0.37c4,0.11,7.38,0.11,9.06,0.11 c1.8,0,2.03-0.11,2.05-0.48C926.64,319.75,926.42,319.59,925.97,319.59z M910.01,306.54h-9.16c-0.11,0-0.24-0.12-0.11-0.32 l4.55-11.51c0.05-0.16,0.1-0.43,0.29-0.43c0.09,0,0.14,0.28,0.2,0.43l4.46,11.54C910.28,306.42,910.24,306.55,910.01,306.54z"></path> <path class="st0" d="M744.83,285.43c-14.28,0-19.83,10.07-19.83,17.87c0,8.09,5.65,17.84,19.38,17.84 c12.17,0,19.77-8.21,19.77-18.68C764.16,292,756.74,285.43,744.83,285.43z M746.33,318.61c-8.94,0-14.26-7.37-14.24-16.75 c-0.02-11.24,6.12-14.05,11.41-14.05c7.55,0.04,13.66,6.22,13.66,16.31C757.1,317.09,749.62,318.61,746.33,318.61z"></path> <path class="st0" d="M795.03,294.13c0-2.47-1.35-4.51-2.4-5.49c-0.71-0.67-2.84-2.57-8.78-2.57c-2.14,0-5.88,0.12-7.78,0.12 c-1.38,0-4.4-0.12-6.85-0.12c-0.65,0-1.05,0.12-1.05,0.43c0,0.3,0.35,0.49,0.76,0.49c0.74,0,1.52,0.01,1.9,0.16 c1.52,0.41,1.94,0.91,2.05,2.47c0.09,1.41,0.09,2.71,0.09,9.64v8.02c0,4.22,0,7.78-0.21,9.7c-0.22,1.4-0.49,2.23-1.41,2.42 c-0.45,0.12-0.98,0.19-1.68,0.17c-0.59,0-0.74,0.25-0.74,0.49c0,0.32,0.29,0.48,0.88,0.48c1.89,0,4.88-0.17,5.96-0.17 c1.27,0,4.56,0.17,7.74,0.17c0.47,0,0.85-0.17,0.85-0.48c-0.02-0.24-0.24-0.47-0.73-0.47c-0.68,0-1.75-0.05-2.4-0.19 c-1.44-0.2-1.71-1.03-1.83-2.38c-0.23-1.96-0.23-5.52-0.23-9.74V289.2c0-0.44,0.11-0.72,0.35-0.82c0.46-0.19,1.34-0.25,2.04-0.25 c1.09,0,2.98,0.25,4.76,1.73c2.59,2.26,2.78,5.27,2.78,6.79c0,4.64-3.71,7.4-6.35,7.4c-1.04,0-1.53,0.18-1.53,0.55 c0,0.34,0.27,0.47,0.58,0.47c0.21,0.07,1.14,0.07,1.37,0.07C789.87,305.13,795.03,300.54,795.03,294.13z"></path> <path class="st0" d="M830.13,286.7c-0.04-0.68-0.04-0.98-0.36-0.98c-0.17,0-0.55,0.11-1.31,0.23c-0.66,0.11-1.7,0.24-3.2,0.24 H806.1c-1.54,0-3.34-0.09-4.68-0.24c-1.18-0.18-1.67-0.53-2.05-0.53c-0.32,0-0.47,0.25-0.53,0.86c-0.13,0.39-1.04,4.74-1.04,5.52 c0,0.47,0.11,0.75,0.44,0.75c0.36,0,0.47-0.23,0.51-0.59c0.1-0.31,0.34-0.94,0.82-1.57c0.73-1.01,1.84-1.32,4.56-1.38l7.01-0.19 v18.44c0,4.22,0,7.78-0.2,9.7c-0.17,1.4-0.45,2.23-1.37,2.42c-0.41,0.14-1.03,0.19-1.67,0.19c-0.6,0-0.8,0.23-0.79,0.47 c0,0.31,0.34,0.48,0.95,0.48c1.88,0,5.09-0.17,6.18-0.17c1.29,0,4.47,0.17,7.56,0.17c0.54,0,0.93-0.17,0.93-0.48 c0-0.24-0.23-0.47-0.73-0.47c-0.73-0.01-1.78-0.07-2.46-0.19c-1.33-0.2-1.65-1.03-1.8-2.38c-0.23-1.96-0.26-5.52-0.32-9.74v-18.44 l6.02,0.13c4.17,0.05,5.45,1.43,5.55,2.59l0.04,0.51c0.05,0.7,0.16,0.92,0.59,0.92c0.21,0,0.33-0.27,0.38-0.78 C830.03,291.02,830.13,287.67,830.13,286.7z"></path> <path class="st0" d="M850.43,320.06c0-0.24-0.23-0.47-0.77-0.47c-0.71,0-1.76-0.05-2.4-0.19c-1.43-0.2-1.77-0.91-1.89-2.14 c-0.26-1.93-0.26-5.56-0.26-9.98v-8.02c0-6.94,0-8.24,0.11-9.64c0.15-1.64,0.53-2.26,1.81-2.49c0.53-0.12,0.91-0.14,1.39-0.14 c0.43,0,0.75-0.12,0.75-0.53c0-0.27-0.41-0.39-0.97-0.39c-1.78,0-4.88,0.12-6.03,0.12c-1.36,0-4.58-0.12-6.39-0.12 c-0.73,0-1.1,0.12-1.1,0.39c0,0.41,0.23,0.53,0.71,0.53c0.66,0,1.23,0.01,1.76,0.21c1,0.32,1.49,0.85,1.61,2.42 c0.03,1.4,0.03,2.7,0.03,9.64v8.02c0,4.42,0.03,8.05-0.17,9.93c-0.21,1.33-0.47,1.99-1.46,2.19c-0.38,0.14-0.93,0.17-1.56,0.19 c-0.68-0.01-0.77,0.23-0.77,0.47c0,0.31,0.27,0.48,0.88,0.48c1.88,0,5.1-0.17,6.17-0.17c1.28,0,4.53,0.17,7.62,0.17 C850.01,320.54,850.43,320.38,850.43,320.06z"></path> <path class="st0" d="M886.81,318.79c0.45-1.58,0.98-5.53,1.04-6.07c0-0.4-0.27-0.83-0.59-0.85c-0.31,0-0.45,0.26-0.6,0.93 c-0.11,0.86-0.75,2.18-1.55,3.07c-1.89,2.08-4.22,2.41-8.38,2.41c-6.35,0-14.67-5.13-14.67-16c0-4.44,0.85-8.8,4.35-11.83 c2.1-1.85,4.77-2.54,8.85-2.54c4.4,0,7.5,1.11,9.15,2.66c1.19,1.16,1.77,2.82,1.82,4.26c-0.02,0.54,0.12,0.94,0.45,0.94 c0.48-0.01,0.6-0.45,0.68-1.13c0.07-0.9,0.07-3.45,0.13-4.95c0.12-1.59,0.21-2.13,0.21-2.49c0-0.28-0.14-0.5-0.65-0.55 c-1.4-0.15-2.94-0.46-4.71-0.74c-2.13-0.29-3.92-0.48-6.89-0.48c-7.02,0-11.5,1.79-14.97,4.81c-4.51,4.03-5.51,9.36-5.51,12.51 c0,4.4,1.23,9.5,5.92,13.44c4.26,3.61,9.72,4.95,16.15,4.93c3.05,0.02,6.65-0.25,8.56-1.01 C886.4,319.79,886.62,319.59,886.81,318.79z"></path> </g> </g> </svg> 